<svg xmlns="http://www.w3.org/2000/svg" viewBox="0 0 96 96">
<rect width="96" height="96" rx="48" fill="#fbf3ee"/>
<circle cx="46" cy="46" r="36" fill="none" stroke="#9d3f5b" stroke-width="2"/>
<path d="M35 23v49M35 24h13c10 0 16 5 16 13 0 7-5 11-12 12 9 1 15 6 15 14 0 9-8 15-20 15H35M35 48h14" fill="none" stroke="#9d3f5b" stroke-width="4" stroke-linecap="round" stroke-linejoin="round"/>
<path d="M66 17c10 13 9 28 1 43-3 5-3 10 1 13 4 3 10 1 10-4 0-3-3-5-6-4-4 1-6 4-8 7" fill="none" stroke="#9d3f5b" stroke-width="2.1" stroke-linecap="round" stroke-linejoin="round"/>
</svg>