<svg xmlns="http://www.w3.org/2000/svg" viewBox="0 0 430 118" role="img" aria-labelledby="t">
<title id="t">Joanne Busscher Pedicure Borne</title>
<style>
.dark{fill:#494947}.gold{fill:#b6a18a}.burg{fill:#9d3f5b}
.sd{stroke:#494947;stroke-width:1.85;fill:none;stroke-linecap:round;stroke-linejoin:round}
.sg{stroke:#b6a18a;stroke-width:1.6;fill:none;stroke-linecap:round;stroke-linejoin:round}
.serif{font-family:Georgia,'Times New Roman',serif}.sans{font-family:Arial,Helvetica,sans-serif}
</style>
<g transform="translate(4 4)">
  <circle cx="54" cy="54" r="50" class="sd"/>
  <text x="33" y="74" font-size="69" class="serif gold">J</text>
  <text x="58" y="73" font-size="63" class="serif dark">B</text>
  <path d="M94 12c13 18 15 36 8 54-3 7-3 13 1 19 3 5 8 8 13 7 4-1 5-5 2-8-3-3-8-2-13 2-5 4-9 9-12 15" class="sg"/>
  <path d="M87 87c7 4 14 5 20 4" class="sg"/>
  <g transform="translate(132 18)">
    <text x="0" y="29" font-size="31" letter-spacing="5.5" class="sans dark">JOANNE BUSSCHER</text>
    <line x1="0" y1="50" x2="79" y2="50" class="sg"/>
    <text x="94" y="58" font-size="19" letter-spacing="8" class="sans gold">PEDICURE</text>
    <line x1="269" y1="50" x2="348" y2="50" class="sg"/>
    <text x="137" y="89" font-size="16" letter-spacing="6" class="sans dark">BORNE</text>
  </g>
</g>
</svg>