<svg xmlns="http://www.w3.org/2000/svg" viewBox="0 0 760 210" role="img" aria-labelledby="t">
<title id="t">Joanne Busscher Pedicure Borne</title>
<style>
.dark{fill:#494947}.gold{fill:#b6a18a}
.sd{stroke:#494947;stroke-width:2.2;fill:none;stroke-linecap:round;stroke-linejoin:round}
.sg{stroke:#b6a18a;stroke-width:2;fill:none;stroke-linecap:round;stroke-linejoin:round}
.serif{font-family:Georgia,'Times New Roman',serif}.sans{font-family:Arial,Helvetica,sans-serif}
</style>
<g transform="translate(8,8)">
  <circle cx="82" cy="82" r="78" class="sd"/>
  <text x="50" y="110" font-size="112" class="serif gold">J</text>
  <text x="90" y="108" font-size="102" class="serif dark">B</text>
  <path d="M145 18c22 27 23 52 11 79-4 9-6 19-2 28 2 5 7 8 11 11 6 4 14 4 17-1 2-3 2-7-1-10-3-3-8-4-13-2-9 4-15 12-20 20" class="sg"/>
  <path d="M132 133c12 7 18 8 27 6" class="sg"/>
  <g transform="translate(205,18)">
    <text x="0" y="78" font-size="50" letter-spacing="7" class="sans dark">JOANNE BUSSCHER</text>
    <line x1="2" y1="108" x2="110" y2="108" class="sg"/>
    <text x="130" y="118" font-size="30" letter-spacing="10" class="sans gold">PEDICURE</text>
    <line x1="370" y1="108" x2="476" y2="108" class="sg"/>
    <text x="205" y="160" font-size="23" letter-spacing="7" class="sans dark">BORNE</text>
    <text x="0" y="192" font-size="14" letter-spacing="2.2" class="sans dark">PROFESSIONELE ZORG VOOR GEZONDE &amp; MOOIE VOETEN</text>
  </g>
</g>
</svg>